HIERARCHY
ROOT Hips
{
	OFFSET 0.000000 88.474243 0.000000
	CHANNELS 6 Xposition Yposition Zposition Zrotation Yrotation Xrotation 
	JOINT Hips_Spine
	{
		OFFSET 0.000000 0.000000 0.000000
		CHANNELS 3 Zrotation Yrotation Xrotation
		JOINT Spine
		{
			OFFSET 0.005100 8.711998 -0.691000
			CHANNELS 3 Zrotation Yrotation Xrotation
			JOINT Spine1
			{
				OFFSET -0.009200 8.660301 -1.275000
				CHANNELS 3 Zrotation Yrotation Xrotation
				JOINT Spine2
				{
					OFFSET 0.006300 9.852501 -1.857000
					CHANNELS 3 Zrotation Yrotation Xrotation
					JOINT Spine2_Neck
					{
						OFFSET 0.000000 0.000000 0.000000
						CHANNELS 3 Zrotation Yrotation Xrotation
						JOINT Neck
						{
							OFFSET 0.016300 11.420799 -0.263300
							CHANNELS 3 Zrotation Yrotation Xrotation
							End Site #name: Head
							{
								OFFSET -0.019200 9.262405 2.362500
							}
						}
					}
					JOINT Spine2_LeftShoulder
					{
						OFFSET 0.000000 0.000000 0.000000
						CHANNELS 3 Zrotation Yrotation Xrotation
						JOINT LeftShoulder
						{
							OFFSET 5.616900 6.732201 -0.345700
							CHANNELS 3 Zrotation Yrotation Xrotation
							JOINT LeftArm
							{
								OFFSET 10.664888 -0.183372 -2.440700
								CHANNELS 3 Zrotation Yrotation Xrotation
								JOINT LeftForeArm
								{
									OFFSET 27.459126 0.000000 0.000000
									CHANNELS 3 Zrotation Yrotation Xrotation
									End Site #name: LeftHand
									{
										OFFSET 21.306858 0.000000 0.000000
									}
								}
							}
						}
					}
					JOINT Spine2_RightShoulder
					{
						OFFSET 0.000000 0.000000 0.000000
						CHANNELS 3 Zrotation Yrotation Xrotation
						JOINT RightShoulder
						{
							OFFSET -5.580300 6.737503 -0.344400
							CHANNELS 3 Zrotation Yrotation Xrotation
							JOINT RightArm
							{
								OFFSET -10.679335 -0.188484 -2.383900
								CHANNELS 3 Zrotation Yrotation Xrotation
								JOINT RightForeArm
								{
									OFFSET -27.503529 0.000000 0.000000
									CHANNELS 3 Zrotation Yrotation Xrotation
									End Site #name: RightHand
									{
										OFFSET -21.306808 0.000000 0.000000
									}
								}
							}
						}
					}
				}
			}
		}
	}
	JOINT Hips_LeftUpLeg
	{
		OFFSET 0.000000 0.000000 0.000000
		CHANNELS 3 Zrotation Yrotation Xrotation
		JOINT LeftUpLeg
		{
			OFFSET 6.857700 -6.739601 0.312100
			CHANNELS 3 Zrotation Yrotation Xrotation
			JOINT LeftLeg
			{
				OFFSET -0.367590 -34.731552 -4.572400
				CHANNELS 3 Zrotation Yrotation Xrotation
				End Site #name: LeftFoot
				{
					OFFSET 0.367590 -34.656704 -6.067400
				}
			}
		}
	}
	JOINT Hips_RightUpLeg
	{
		OFFSET 0.000000 0.000000 0.000000
		CHANNELS 3 Zrotation Yrotation Xrotation
		JOINT RightUpLeg
		{
			OFFSET -6.876100 -6.733299 0.301000
			CHANNELS 3 Zrotation Yrotation Xrotation
			JOINT RightLeg
			{
				OFFSET 0.347353 -34.795158 -4.515900
				CHANNELS 3 Zrotation Yrotation Xrotation
				End Site #name: RightFoot
				{
					OFFSET -0.347353 -34.589367 -6.070300
				}
			}
		}
	}
}
MOTION
Frames: 12
Frame Time: 0.041667
-1.834164 0.380398 -0.854343 2.017735 2.843095 -6.654260 -0.000000 0.000000 0.000000 3.612062 1.540563 -2.973013 2.884066 -0.741039 -1.876872 0.000000 0.000000 0.000000 3.127466 -0.494901 -1.902945 4.151886 -3.028450 0.849450 2.716184 -0.997110 -1.986094 -22.341362 1.384696 3.996515 -49.952374 9.009962 23.083014 -0.592150 -20.658136 3.154782 2.458461 -0.545907 -0.751556 10.530448 7.041371 2.012695 59.775022 4.819526 -5.140154 0.796919 34.270019 -0.247001 0.000000 -0.000000 -0.000000 -7.175313 16.794356 -7.066749 4.518132 11.803896 23.877708 0.000000 0.000000 0.000000 -5.767409 -0.729550 -14.822854 4.243979 -7.537873 7.870687 
-2.205527 0.338454 -0.919912 1.904669 2.598577 -6.682997 -0.000000 0.000000 0.000000 3.881796 1.296203 -3.143582 3.104162 -0.823666 -1.850945 0.000000 0.000000 0.000000 3.278162 -0.513181 -1.849535 4.288585 -2.941732 0.922098 2.928008 -1.052534 -1.912370 -21.985931 1.620270 4.087741 -50.526593 9.369295 22.811510 -0.639200 -21.764710 3.170506 2.628333 -0.587391 -0.745421 10.389196 7.233244 2.038892 59.636529 4.506003 -5.145943 0.800970 34.734241 -0.251709 0.000000 -0.000000 -0.000000 -6.587504 16.647895 -7.270403 4.357398 11.759794 24.813343 0.000000 -0.000000 0.000000 -5.230359 -0.638289 -15.329543 4.609873 -7.520115 8.497468 
-2.561683 0.287770 -0.978792 1.750740 2.421496 -6.695435 -0.000000 0.000000 0.000000 4.146526 1.043012 -3.269634 3.305063 -0.905972 -1.796078 0.000000 0.000000 0.000000 3.411972 -0.534907 -1.785807 4.413989 -2.839252 0.989245 3.109181 -1.106913 -1.825061 -21.679693 1.827937 4.142620 -51.047120 9.656886 22.483678 -0.683164 -22.833515 3.218490 2.784328 -0.633209 -0.728298 10.313207 7.412620 2.064694 59.531788 4.210723 -5.209989 0.805012 35.176558 -0.253039 0.000000 -0.000000 -0.000000 -6.003479 16.650418 -7.190607 4.056035 11.556906 25.417781 0.000000 -0.000000 0.000000 -4.691069 -0.508493 -15.906683 4.942276 -7.533653 9.280703 
-2.889086 0.226733 -1.033038 1.590326 2.123936 -6.707757 -0.000000 0.000000 0.000000 4.410701 0.800648 -3.348625 3.480354 -0.978743 -1.715222 0.000000 0.000000 0.000000 3.528662 -0.561317 -1.708238 4.523033 -2.720046 1.058413 3.265593 -1.155168 -1.714593 -21.425113 1.987461 4.163427 -51.496436 9.892449 22.170570 -0.725492 -23.816469 3.292578 2.921013 -0.674154 -0.696290 10.304558 7.586468 2.096338 59.452259 3.944874 -5.320360 0.810612 35.616361 -0.251638 -0.000000 -0.000000 -0.000000 -5.367047 16.752163 -6.678294 3.616119 11.324832 25.429752 0.000000 -0.000000 0.000000 -4.161288 -0.276025 -16.505786 5.246384 -7.568715 10.092696 
-3.171816 0.151123 -1.083633 1.466094 1.421897 -6.735840 0.000000 0.000000 0.000000 4.722601 0.523091 -3.345345 3.639075 -1.049573 -1.592905 0.000000 0.000000 0.000000 3.627121 -0.593126 -1.611390 4.594739 -2.635323 1.148390 3.404681 -1.197906 -1.588486 -21.212821 2.107977 4.144942 -51.853432 10.017875 21.880367 -0.766593 -24.693816 3.405867 3.041974 -0.715176 -0.647113 10.365141 7.753461 2.133245 59.388822 3.734787 -5.417198 0.816470 36.072390 -0.248238 -0.000000 -0.000000 -0.000000 -4.679749 16.996926 -6.075865 3.107012 10.950560 25.254033 0.000000 -0.000000 0.000000 -3.665986 0.092921 -17.074273 5.541144 -7.633153 10.898445 
-3.402734 0.065223 -1.136534 1.389887 0.298233 -6.778935 0.000000 0.000000 0.000000 5.027069 0.149337 -3.238091 3.781503 -1.128954 -1.433917 0.000000 0.000000 0.000000 3.706537 -0.632197 -1.495482 4.633637 -2.552292 1.232479 3.524759 -1.242902 -1.433079 -21.024515 2.172145 4.099351 -52.101239 10.006158 21.625399 -0.808461 -25.440447 3.507714 3.145051 -0.760561 -0.580801 10.461339 7.917735 2.164930 59.349461 3.592617 -5.455409 0.824824 36.576999 -0.241612 -0.000000 -0.000000 -0.000000 -4.030986 17.192880 -5.573845 2.630971 10.303762 25.371694 0.000000 -0.000000 0.000000 -3.227988 0.590204 -17.626229 5.816905 -7.711738 11.825931 
-3.574257 -0.023632 -1.191525 1.375408 -1.207636 -6.814362 0.000000 -0.000000 0.000000 5.247920 -0.304056 -3.041546 3.911763 -1.224782 -1.254128 0.000000 0.000000 0.000000 3.771331 -0.683862 -1.378228 4.647630 -2.482890 1.317701 3.628420 -1.300940 -1.239465 -20.885588 2.203068 4.071928 -52.298889 9.884126 21.391483 -0.837207 -25.958747 3.637838 3.231239 -0.818897 -0.495708 10.599796 8.218584 2.226682 59.334435 3.509704 -5.428654 0.835489 37.124909 -0.231735 -0.000000 -0.000000 -0.000000 -3.440404 17.195743 -5.247292 2.100968 9.626871 25.909744 0.000000 -0.000000 0.000000 -2.849654 1.161938 -18.208719 6.042760 -7.773175 12.925968 
-3.680850 -0.114693 -1.252879 1.442596 -2.974421 -6.811803 0.000000 -0.000000 0.000000 5.397109 -0.780227 -2.788684 4.034748 -1.334019 -1.056960 0.000000 0.000000 0.000000 3.825617 -0.745857 -1.267385 4.634463 -2.408183 1.392099 3.717778 -1.366202 -1.064861 -20.799637 2.196870 4.042375 -52.417058 9.670935 21.285696 -0.864612 -26.282828 3.774695 3.306137 -0.894415 -0.386085 10.719858 8.554645 2.281705 59.374078 3.434999 -5.243212 0.848828 37.780386 -0.219041 -0.000000 -0.000000 -0.000000 -2.967427 17.021060 -4.875817 1.512012 9.112375 26.329837 0.000000 -0.000000 0.000000 -2.562943 1.704859 -18.829128 6.218982 -7.797297 14.081222 
-3.719125 -0.207729 -1.322031 1.590373 -4.883573 -6.763559 0.000000 -0.000000 0.000000 5.478966 -1.255549 -2.527722 4.147547 -1.437110 -0.877393 0.000000 0.000000 0.000000 3.874452 -0.803564 -1.168955 4.597464 -2.330112 1.460751 3.797686 -1.429348 -0.918968 -20.768047 2.180660 4.012948 -52.498802 9.395739 21.278701 -0.879641 -26.435306 3.893802 3.376298 -0.972521 -0.292541 10.786543 8.875894 2.320062 59.433871 3.423881 -4.919297 0.862715 38.558434 -0.205232 -0.000000 -0.000000 -0.000000 -2.597651 16.764708 -4.536539 0.924246 8.822585 26.663292 0.000000 -0.000000 0.000000 -2.394872 2.245788 -19.527266 6.367733 -7.771914 15.275673 
-3.691581 -0.294279 -1.391341 1.805527 -6.876794 -6.675104 0.000000 -0.000000 0.000000 5.485933 -1.676524 -2.316974 4.214329 -1.517267 -0.746001 0.000000 0.000000 0.000000 3.918332 -0.854007 -1.087796 4.540818 -2.245883 1.520683 3.868904 -1.483044 -0.803826 -20.788946 2.166087 3.980657 -52.560275 9.102259 21.358142 -0.888982 -26.398481 3.990987 3.439075 -1.037978 -0.219774 10.807820 9.175422 2.350368 59.491448 3.428752 -4.528176 0.879337 39.443775 -0.189351 -0.000000 -0.000000 -0.000000 -2.416299 16.401227 -4.326270 0.327575 8.267319 26.950834 0.000000 -0.000000 0.000000 -2.358289 2.740473 -20.290141 6.462767 -7.713577 16.528817 
-3.603813 -0.371009 -1.456638 2.049874 -8.777011 -6.569909 0.000000 -0.000000 0.000000 5.441747 -2.024466 -2.115966 4.258046 -1.574972 -0.651851 0.000000 0.000000 0.000000 3.951700 -0.891755 -1.028277 4.468292 -2.156453 1.572849 3.925181 -1.520202 -0.717177 -20.866465 2.154011 3.949343 -52.583779 8.829393 21.533685 -0.892604 -26.262019 4.064219 3.489691 -1.090771 -0.168936 10.790995 9.461067 2.373991 59.539964 3.469788 -4.091313 0.897721 40.402138 -0.170460 -0.000000 -0.000000 -0.000000 -2.446434 15.998117 -4.224660 -0.156022 7.561104 27.231179 0.000000 -0.000000 0.000000 -2.427001 3.145982 -21.021801 6.525562 -7.577517 17.764081 
-3.460869 -0.440803 -1.518367 2.288969 -10.405543 -6.475002 -0.000000 -0.000000 0.000000 5.388738 -2.300531 -1.920157 4.287638 -1.622189 -0.582460 0.000000 0.000000 0.000000 3.970660 -0.921644 -0.978083 4.382884 -2.057010 1.619112 3.965080 -1.551304 -0.659762 -20.982949 2.150397 3.910119 -52.578435 8.598810 21.807107 -0.887460 -26.001877 4.125985 3.525606 -1.135725 -0.134161 10.746949 9.737628 2.391915 59.578556 3.555434 -3.698463 0.916250 41.321378 -0.151245 -0.000000 -0.000000 -0.000000 -2.626830 15.575733 -4.162459 -0.565552 6.916267 27.407045 0.000000 -0.000000 0.000000 -2.585297 3.461995 -21.714272 6.570897 -7.360215 19.013377 
